<svg xmlns="http://www.w3.org/2000/svg" width="1573.356" height="434.105" viewBox="0 0 1480.713 434.105">
  <g id="logo" transform="translate(-1081.287 -1325.585)">
    <g id="adasdasd" transform="translate(-811 588)">
      <text id="Contenu" transform="translate(2386 1038)" fill="#20dfa5" font-size="250" font-family="Quicksand-Medium, Quicksand" font-weight="500"><tspan x="0" y="0">Contenu</tspan></text>
    </g>
    <g id="Rectangle_57" data-name="Rectangle 57" transform="translate(1154.644 1424.792)" fill="#1a202c" stroke="#707070" stroke-width="1">
      <rect width="206" height="194" stroke="none"/>
      <rect x="0.5" y="0.5" width="205" height="193" fill="none"/>
    </g>
    <g id="Logo-Large" transform="translate(752.111 1186.838)">
      <g id="Group_38" data-name="Group 38" transform="translate(329.177 138.746)">
        <g id="Group_34" data-name="Group 34" transform="translate(0 0)">
          <g id="Group_32" data-name="Group 32" transform="translate(113.158 0.09)">
            <g id="Group_28" data-name="Group 28" transform="translate(0 0)">
              <g id="Group_21" data-name="Group 21" transform="translate(112.452 197.456)">
                <g id="Polygon_1" data-name="Polygon 1" transform="translate(0 68.803) rotate(-30)" fill="#1a202c">
                  <path d="M 98.00994110107422 110.0706939697266 L 39.59528732299805 110.0706939697266 L 10.39447402954102 59.53536605834961 L 39.5953254699707 9.000008583068848 L 98.00994110107422 9.000008583068848 L 127.2107849121094 59.53535079956055 L 98.00994110107422 110.0706939697266 Z" stroke="none"/>
                  <path d="M 44.78931427001953 17.99999237060547 L 20.78893280029297 59.53535461425781 L 44.78928375244141 101.0707092285156 L 92.81594848632813 101.0707092285156 L 116.8163070678711 59.53535079956055 L 92.81594848632813 17.99999237060547 L 44.78931427001953 17.99999237060547 M 34.40133666992188 -7.62939453125e-06 L 103.2039413452148 -7.62939453125e-06 L 137.605224609375 59.53535079956055 L 103.2039413452148 119.0707092285156 L 34.40129852294922 119.0707092285156 L 1.52587890625e-05 59.53535079956055 L 34.40133666992188 -7.62939453125e-06 Z" stroke="none" fill="#20dfa5"/>
                </g>
              </g>
              <g id="Group_26" data-name="Group 26" transform="translate(54.013 230.957)">
                <g id="Polygon_1-2" data-name="Polygon 1" transform="translate(0 68.803) rotate(-30)" fill="#1a202c">
                  <path d="M 98.00994110107422 110.0706939697266 L 39.59528732299805 110.0706939697266 L 10.39447402954102 59.53536605834961 L 39.5953254699707 9.000008583068848 L 98.00994110107422 9.000008583068848 L 127.2107849121094 59.53535079956055 L 98.00994110107422 110.0706939697266 Z" stroke="none"/>
                  <path d="M 44.78931427001953 17.99999237060547 L 20.78893280029297 59.53535461425781 L 44.78928375244141 101.0707092285156 L 92.81594848632813 101.0707092285156 L 116.8163070678711 59.53535079956055 L 92.81594848632813 17.99999237060547 L 44.78931427001953 17.99999237060547 M 34.40133666992188 -7.62939453125e-06 L 103.2039413452148 -7.62939453125e-06 L 137.605224609375 59.53535079956055 L 103.2039413452148 119.0707092285156 L 34.40129852294922 119.0707092285156 L 1.52587890625e-05 59.53535079956055 L 34.40133666992188 -7.62939453125e-06 Z" stroke="none" fill="#20dfa5"/>
                </g>
              </g>
              <g id="Group_27" data-name="Group 27" transform="translate(0 262.094)">
                <g id="Polygon_1-3" data-name="Polygon 1" transform="translate(0 68.803) rotate(-30)" fill="#1a202c">
                  <path d="M 98.00994110107422 110.0706939697266 L 39.59528732299805 110.0706939697266 L 10.39447402954102 59.53536605834961 L 39.5953254699707 9.000008583068848 L 98.00994110107422 9.000008583068848 L 127.2107849121094 59.53535079956055 L 98.00994110107422 110.0706939697266 Z" stroke="none"/>
                  <path d="M 44.78931427001953 17.99999237060547 L 20.78893280029297 59.53535461425781 L 44.78928375244141 101.0707092285156 L 92.81594848632813 101.0707092285156 L 116.8163070678711 59.53535079956055 L 92.81594848632813 17.99999237060547 L 44.78931427001953 17.99999237060547 M 34.40133666992188 -7.62939453125e-06 L 103.2039413452148 -7.62939453125e-06 L 137.605224609375 59.53535079956055 L 103.2039413452148 119.0707092285156 L 34.40129852294922 119.0707092285156 L 1.52587890625e-05 59.53535079956055 L 34.40133666992188 -7.62939453125e-06 Z" stroke="none" fill="#20dfa5"/>
                </g>
              </g>
              <g id="Group_22" data-name="Group 22" transform="translate(66.409 131.075)">
                <path id="Path_39" data-name="Path 39" d="M-6310.8-4642.726l119.35-71.219,29.739,25.044-42.653,24.652-77.625,39.98Z" transform="translate(6305 4827.111)" fill="#1a202c"/>
                <g id="Polygon_1-4" data-name="Polygon 1" transform="translate(46.044 68.803) rotate(-30)" fill="#1a202c">
                  <path d="M 98.00994110107422 110.0706939697266 L 39.59528732299805 110.0706939697266 L 10.39447402954102 59.53536605834961 L 39.5953254699707 9.000008583068848 L 98.00994110107422 9.000008583068848 L 127.2107849121094 59.53535079956055 L 98.00994110107422 110.0706939697266 Z" stroke="none"/>
                  <path d="M 44.78931427001953 17.99999237060547 L 20.78893280029297 59.53535461425781 L 44.78928375244141 101.0707092285156 L 92.81594848632813 101.0707092285156 L 116.8163070678711 59.53535079956055 L 92.81594848632813 17.99999237060547 L 44.78931427001953 17.99999237060547 M 34.40133666992188 -7.62939453125e-06 L 103.2039413452148 -7.62939453125e-06 L 137.605224609375 59.53535079956055 L 103.2039413452148 119.0707092285156 L 34.40129852294922 119.0707092285156 L 1.52587890625e-05 59.53535079956055 L 34.40133666992188 -7.62939453125e-06 Z" stroke="none" fill="#20dfa5"/>
                </g>
              </g>
              <g id="Group_24" data-name="Group 24" transform="translate(54.013 31.019)">
                <g id="Polygon_1-5" data-name="Polygon 1" transform="translate(0 68.803) rotate(-30)" fill="#1a202c">
                  <path d="M 98.00994110107422 110.0706939697266 L 39.59528732299805 110.0706939697266 L 10.39447402954102 59.53536605834961 L 39.5953254699707 9.000008583068848 L 98.00994110107422 9.000008583068848 L 127.2107849121094 59.53535079956055 L 98.00994110107422 110.0706939697266 Z" stroke="none"/>
                  <path d="M 44.78931427001953 17.99999237060547 L 20.78893280029297 59.53535461425781 L 44.78928375244141 101.0707092285156 L 92.81594848632813 101.0707092285156 L 116.8163070678711 59.53535079956055 L 92.81594848632813 17.99999237060547 L 44.78931427001953 17.99999237060547 M 34.40133666992188 -7.62939453125e-06 L 103.2039413452148 -7.62939453125e-06 L 137.605224609375 59.53535079956055 L 103.2039413452148 119.0707092285156 L 34.40129852294922 119.0707092285156 L 1.52587890625e-05 59.53535079956055 L 34.40133666992188 -7.62939453125e-06 Z" stroke="none" fill="#20dfa5"/>
                </g>
              </g>
              <g id="Group_23" data-name="Group 23" transform="translate(112.452 64.638)">
                <g id="Polygon_1-6" data-name="Polygon 1" transform="translate(0 68.803) rotate(-30)" fill="#1a202c">
                  <path d="M 98.00994110107422 110.0706939697266 L 39.59528732299805 110.0706939697266 L 10.39447402954102 59.53536605834961 L 39.5953254699707 9.000008583068848 L 98.00994110107422 9.000008583068848 L 127.2107849121094 59.53535079956055 L 98.00994110107422 110.0706939697266 Z" stroke="none"/>
                  <path d="M 44.78931427001953 17.99999237060547 L 20.78893280029297 59.53535461425781 L 44.78928375244141 101.0707092285156 L 92.81594848632813 101.0707092285156 L 116.8163070678711 59.53535079956055 L 92.81594848632813 17.99999237060547 L 44.78931427001953 17.99999237060547 M 34.40133666992188 -7.62939453125e-06 L 103.2039413452148 -7.62939453125e-06 L 137.605224609375 59.53535079956055 L 103.2039413452148 119.0707092285156 L 34.40129852294922 119.0707092285156 L 1.52587890625e-05 59.53535079956055 L 34.40133666992188 -7.62939453125e-06 Z" stroke="none" fill="#20dfa5"/>
                </g>
              </g>
              <g id="Group_25" data-name="Group 25" transform="translate(0 0)">
                <g id="Polygon_1-7" data-name="Polygon 1" transform="translate(0 68.803) rotate(-30)" fill="#1a202c">
                  <path d="M 98.00994110107422 110.0706939697266 L 39.59528732299805 110.0706939697266 L 10.39447402954102 59.53536605834961 L 39.5953254699707 9.000008583068848 L 98.00994110107422 9.000008583068848 L 127.2107849121094 59.53535079956055 L 98.00994110107422 110.0706939697266 Z" stroke="none"/>
                  <path d="M 44.78931427001953 17.99999237060547 L 20.78893280029297 59.53535461425781 L 44.78928375244141 101.0707092285156 L 92.81594848632813 101.0707092285156 L 116.8163070678711 59.53535079956055 L 92.81594848632813 17.99999237060547 L 44.78931427001953 17.99999237060547 M 34.40133666992188 -7.62939453125e-06 L 103.2039413452148 -7.62939453125e-06 L 137.605224609375 59.53535079956055 L 103.2039413452148 119.0707092285156 L 34.40129852294922 119.0707092285156 L 1.52587890625e-05 59.53535079956055 L 34.40133666992188 -7.62939453125e-06 Z" stroke="none" fill="#20dfa5"/>
                </g>
                <path id="Path_30" data-name="Path 30" d="M-6309.846-4884.331" transform="translate(6346.415 4940.31)" fill="none" stroke="#20dfa5" stroke-width="18"/>
              </g>
            </g>
            <g id="Group_30" data-name="Group 30" transform="translate(44.177 60.28)">
              <path id="Path_31" data-name="Path 31" d="M-6150.594-4860.743l-48.678,26.339L-6357-4923.083" transform="translate(6357 4923.083)" fill="none" stroke="#20dfa5" stroke-width="18"/>
              <path id="Path_32" data-name="Path 32" d="M-6301.758-4822.933v179.687" transform="translate(6459.25 4911.612)" fill="none" stroke="#20dfa5" stroke-width="18"/>
            </g>
            <path id="Path_33" data-name="Path 33" d="M-6305-4630.975l45.327,24.209L-6144.638-4672" transform="translate(6349.177 4954.602)" fill="none" stroke="#20dfa5" stroke-width="18"/>
            <path id="Path_34" data-name="Path 34" d="M-6174.81-4598.327v56.6" transform="translate(6264.072 4946.165)" fill="none" stroke="#20dfa5" stroke-width="18"/>
            <path id="Path_36" data-name="Path 36" d="M-6174.81-4598.327v56.6" transform="translate(6264.252 4946.308)" fill="none" stroke="#20dfa5" stroke-width="18"/>
            <path id="Path_37" data-name="Path 37" d="M-6303.386-4939.357l134.049,76.981-23.981,14.441-135.839-76.009Z" transform="translate(6392.955 4985.228)" fill="#1a202c"/>
            <path id="Path_38" data-name="Path 38" d="M-6287.6-4900.141l134.533,75.3,3.4,37.6-63.946-37.011-18.365-10.629-57.311-33.17Z" transform="translate(6342.205 4980.736)" fill="#1a202c"/>
            <path id="Path_40" data-name="Path 40" d="M-6333.982-4576.295l161.073-92.554v36.392l-76.7,45Z" transform="translate(6411.562 4941.656)" fill="#1a202c"/>
            <path id="Path_41" data-name="Path 41" d="M-6301.856-4672v56.139" transform="translate(6503.612 4954.602)" fill="none" stroke="#20dfa5" stroke-width="18"/>
          </g>
          <g id="Group_33" data-name="Group 33" transform="translate(0 0)">
            <g id="Group_28-2" data-name="Group 28" transform="translate(0 0)">
              <g id="Group_21-2" data-name="Group 21" transform="translate(0 197.456)">
                <g id="Polygon_1-8" data-name="Polygon 1" transform="translate(59.535) rotate(30)" fill="#1a202c">
                  <path d="M 98.00996398925781 110.0706939697266 L 39.5953254699707 110.0706939697266 L 10.3944787979126 59.53535079956055 L 39.5953254699707 9.000008583068848 L 98.00996398925781 9.000008583068848 L 127.2108306884766 59.53535079956055 L 98.00996398925781 110.0706939697266 Z" stroke="none"/>
                  <path d="M 44.789306640625 17.99999237060547 L 20.78892517089844 59.53535079956055 L 44.789306640625 101.0707092285156 L 92.81597900390625 101.0707092285156 L 116.8163604736328 59.53535079956055 L 92.81597900390625 17.99999237060547 L 44.789306640625 17.99999237060547 M 34.40132141113281 -7.62939453125e-06 L 103.2039642333984 -7.62939453125e-06 L 137.6052856445313 59.53535079956055 L 103.2039642333984 119.0707092285156 L 34.40132141113281 119.0707092285156 L 0 59.53535079956055 L 34.40132141113281 -7.62939453125e-06 Z" stroke="none" fill="#20dfa5"/>
                </g>
              </g>
              <g id="Group_26-2" data-name="Group 26" transform="translate(58.44 231.246)">
                <g id="Polygon_1-9" data-name="Polygon 1" transform="translate(59.535 0) rotate(30)" fill="#1a202c">
                  <path d="M 98.00996398925781 110.0706939697266 L 39.5953254699707 110.0706939697266 L 10.3944787979126 59.53535079956055 L 39.5953254699707 9.000008583068848 L 98.00996398925781 9.000008583068848 L 127.2108306884766 59.53535079956055 L 98.00996398925781 110.0706939697266 Z" stroke="none"/>
                  <path d="M 44.789306640625 17.99999237060547 L 20.78892517089844 59.53535079956055 L 44.789306640625 101.0707092285156 L 92.81597900390625 101.0707092285156 L 116.8163604736328 59.53535079956055 L 92.81597900390625 17.99999237060547 L 44.789306640625 17.99999237060547 M 34.40132141113281 -7.62939453125e-06 L 103.2039642333984 -7.62939453125e-06 L 137.6052856445313 59.53535079956055 L 103.2039642333984 119.0707092285156 L 34.40132141113281 119.0707092285156 L 0 59.53535079956055 L 34.40132141113281 -7.62939453125e-06 Z" stroke="none" fill="#20dfa5"/>
                </g>
              </g>
              <g id="Group_27-2" data-name="Group 27" transform="translate(112.452 262.094)">
                <g id="Polygon_1-10" data-name="Polygon 1" transform="translate(59.535 0) rotate(30)" fill="#1a202c">
                  <path d="M 98.00996398925781 110.0706939697266 L 39.5953254699707 110.0706939697266 L 10.3944787979126 59.53535079956055 L 39.5953254699707 9.000008583068848 L 98.00996398925781 9.000008583068848 L 127.2108306884766 59.53535079956055 L 98.00996398925781 110.0706939697266 Z" stroke="none"/>
                  <path d="M 44.789306640625 17.99999237060547 L 20.78892517089844 59.53535079956055 L 44.789306640625 101.0707092285156 L 92.81597900390625 101.0707092285156 L 116.8163604736328 59.53535079956055 L 92.81597900390625 17.99999237060547 L 44.789306640625 17.99999237060547 M 34.40132141113281 -7.62939453125e-06 L 103.2039642333984 -7.62939453125e-06 L 137.6052856445313 59.53535079956055 L 103.2039642333984 119.0707092285156 L 34.40132141113281 119.0707092285156 L 0 59.53535079956055 L 34.40132141113281 -7.62939453125e-06 Z" stroke="none" fill="#20dfa5"/>
                </g>
              </g>
              <g id="Group_22-2" data-name="Group 22" transform="translate(0 131.075)">
                <path id="Path_39-2" data-name="Path 39" d="M-6159.942-4640.289l-116.611-70.045-38.65,14.78,48.462,28.294,76.863,42.992Z" transform="translate(6391.618 4827.111)" fill="#1a202c"/>
                <g id="Polygon_1-11" data-name="Polygon 1" transform="translate(59.535) rotate(30)" fill="#1a202c">
                  <path d="M 98.00996398925781 110.0706939697266 L 39.5953254699707 110.0706939697266 L 10.3944787979126 59.53535079956055 L 39.5953254699707 9.000008583068848 L 98.00996398925781 9.000008583068848 L 127.2108306884766 59.53535079956055 L 98.00996398925781 110.0706939697266 Z" stroke="none"/>
                  <path d="M 44.789306640625 17.99999237060547 L 20.78892517089844 59.53535079956055 L 44.789306640625 101.0707092285156 L 92.81597900390625 101.0707092285156 L 116.8163604736328 59.53535079956055 L 92.81597900390625 17.99999237060547 L 44.789306640625 17.99999237060547 M 34.40132141113281 -7.62939453125e-06 L 103.2039642333984 -7.62939453125e-06 L 137.6052856445313 59.53535079956055 L 103.2039642333984 119.0707092285156 L 34.40132141113281 119.0707092285156 L 0 59.53535079956055 L 34.40132141113281 -7.62939453125e-06 Z" stroke="none" fill="#20dfa5"/>
                </g>
              </g>
              <g id="Group_24-2" data-name="Group 24" transform="translate(58.44 31.019)">
                <g id="Polygon_1-12" data-name="Polygon 1" transform="translate(59.535 0) rotate(30)" fill="#1a202c">
                  <path d="M 98.00996398925781 110.0706939697266 L 39.5953254699707 110.0706939697266 L 10.3944787979126 59.53535079956055 L 39.5953254699707 9.000008583068848 L 98.00996398925781 9.000008583068848 L 127.2108306884766 59.53535079956055 L 98.00996398925781 110.0706939697266 Z" stroke="none"/>
                  <path d="M 44.789306640625 17.99999237060547 L 20.78892517089844 59.53535079956055 L 44.789306640625 101.0707092285156 L 92.81597900390625 101.0707092285156 L 116.8163604736328 59.53535079956055 L 92.81597900390625 17.99999237060547 L 44.789306640625 17.99999237060547 M 34.40132141113281 -7.62939453125e-06 L 103.2039642333984 -7.62939453125e-06 L 137.6052856445313 59.53535079956055 L 103.2039642333984 119.0707092285156 L 34.40132141113281 119.0707092285156 L 0 59.53535079956055 L 34.40132141113281 -7.62939453125e-06 Z" stroke="none" fill="#20dfa5"/>
                </g>
              </g>
              <g id="Group_23-2" data-name="Group 23" transform="translate(0 64.638)">
                <g id="Polygon_1-13" data-name="Polygon 1" transform="translate(59.535 0) rotate(30)" fill="#1a202c">
                  <path d="M 98.00996398925781 110.0706939697266 L 39.5953254699707 110.0706939697266 L 10.3944787979126 59.53535079956055 L 39.5953254699707 9.000008583068848 L 98.00996398925781 9.000008583068848 L 127.2108306884766 59.53535079956055 L 98.00996398925781 110.0706939697266 Z" stroke="none"/>
                  <path d="M 44.789306640625 17.99999237060547 L 20.78892517089844 59.53535079956055 L 44.789306640625 101.0707092285156 L 92.81597900390625 101.0707092285156 L 116.8163604736328 59.53535079956055 L 92.81597900390625 17.99999237060547 L 44.789306640625 17.99999237060547 M 34.40132141113281 -7.62939453125e-06 L 103.2039642333984 -7.62939453125e-06 L 137.6052856445313 59.53535079956055 L 103.2039642333984 119.0707092285156 L 34.40132141113281 119.0707092285156 L 0 59.53535079956055 L 34.40132141113281 -7.62939453125e-06 Z" stroke="none" fill="#20dfa5"/>
                </g>
              </g>
              <g id="Group_25-2" data-name="Group 25" transform="translate(112.452 0)">
                <g id="Polygon_1-14" data-name="Polygon 1" transform="translate(59.535) rotate(30)" fill="#1a202c">
                  <path d="M 98.00996398925781 110.0706939697266 L 39.5953254699707 110.0706939697266 L 10.3944787979126 59.53535079956055 L 39.5953254699707 9.000008583068848 L 98.00996398925781 9.000008583068848 L 127.2108306884766 59.53535079956055 L 98.00996398925781 110.0706939697266 Z" stroke="none"/>
                  <path d="M 44.789306640625 17.99999237060547 L 20.78892517089844 59.53535079956055 L 44.789306640625 101.0707092285156 L 92.81597900390625 101.0707092285156 L 116.8163604736328 59.53535079956055 L 92.81597900390625 17.99999237060547 L 44.789306640625 17.99999237060547 M 34.40132141113281 -7.62939453125e-06 L 103.2039642333984 -7.62939453125e-06 L 137.6052856445313 59.53535079956055 L 103.2039642333984 119.0707092285156 L 34.40132141113281 119.0707092285156 L 0 59.53535079956055 L 34.40132141113281 -7.62939453125e-06 Z" stroke="none" fill="#20dfa5"/>
                </g>
                <path id="Path_30-2" data-name="Path 30" d="M-6309.846-4884.331" transform="translate(6451.981 4940.31)" fill="none" stroke="#20dfa5" stroke-width="18"/>
              </g>
            </g>
            <g id="Group_30-2" data-name="Group 30" transform="translate(40.574 60.28)">
              <path id="Path_31-2" data-name="Path 31" d="M-6357-4860.743l48.677,26.339,157.729-88.679" transform="translate(6357 4923.083)" fill="none" stroke="#20dfa5" stroke-width="18"/>
              <path id="Path_32-2" data-name="Path 32" d="M-6301.758-4822.933v179.687" transform="translate(6350.672 4911.612)" fill="none" stroke="#20dfa5" stroke-width="18"/>
            </g>
            <path id="Path_33-2" data-name="Path 33" d="M-6144.638-4630.975l-45.328,24.209L-6305-4672" transform="translate(6393.618 4952.602)" fill="none" stroke="#20dfa5" stroke-width="18"/>
            <path id="Path_34-2" data-name="Path 34" d="M-6174.81-4598.327v56.6" transform="translate(6376.705 4946.164)" fill="none" stroke="#20dfa5" stroke-width="18"/>
            <path id="Path_36-2" data-name="Path 36" d="M-6174.81-4598.327v56.6" transform="translate(6376.525 4946.308)" fill="none" stroke="#20dfa5" stroke-width="18"/>
            <path id="Path_37-2" data-name="Path 37" d="M-6197.454-4944.463l-134.3,76.873,31.027,18.292,134.065-74.789Z" transform="translate(6394.085 4985.228)" fill="#1a202c"/>
            <path id="Path_38-2" data-name="Path 38" d="M-6153.069-4904.08l-134.533,75.3v39.317l134.533-77.467Z" transform="translate(6389.624 4980.736)" fill="#1a202c"/>
            <path id="Path_40-2" data-name="Path 40" d="M-6203.16-4603.037l-125.22-71.039-4.214,38.529,128.23,72.242Z" transform="translate(6393.657 4951.457)" fill="#1a202c"/>
            <path id="Path_41-2" data-name="Path 41" d="M-6301.856-4672v56.139" transform="translate(6391.258 4954.602)" fill="none" stroke="#20dfa5" stroke-width="18"/>
          </g>
          <path id="Path_42" data-name="Path 42" d="M-6173.729-4826.062v-67.963" transform="translate(6377.739 4972.737)" fill="none" stroke="#20dfa5" stroke-width="18"/>
          <path id="Path_43" data-name="Path 43" d="M-6105.7-4857.888l-67.258-35.94" transform="translate(6376.494 4980.012)" fill="none" stroke="#20dfa5" stroke-width="18"/>
          <path id="Path_44" data-name="Path 44" d="M-6058.725-4839.474l-82.894-47.234,22.46-24.081,70.622,40.983Z" transform="translate(6369.283 4975.868)" fill="#1a202c"/>
          <path id="Path_45" data-name="Path 45" d="M-6087.956-4840.824l-71.982-42.473v40.078l10.545,6.029Z" transform="translate(6372.971 4983.378)" fill="#1a202c"/>
        </g>
        <g id="Group_35" data-name="Group 35" transform="translate(155.09 170.427)">
          <g id="Polygon_2" data-name="Polygon 2" transform="translate(0 36.842) rotate(-30)" fill="#1a202c">
            <path d="M 52.67842864990234 58.67135238647461 L 21.00607109069824 58.67135238647461 L 5.209390640258789 31.58567428588867 L 21.00607109069824 4.500007629394531 L 52.67842864990234 4.500007629394531 L 68.47511291503906 31.58567428588867 L 52.67842864990234 58.67135238647461 Z" stroke="none"/>
            <path d="M 23.59099197387695 9 L 10.41876983642578 31.58567428588867 L 23.59099197387695 54.17134857177734 L 50.093505859375 54.17134857177734 L 63.26573181152344 31.58567428588867 L 50.093505859375 9 L 23.59099197387695 9 M 18.42112350463867 0 L 55.26337814331055 0 L 73.68450164794922 31.58567428588867 L 55.26337814331055 63.17134857177734 L 18.42112350463867 63.17134857177734 L 0 31.58567428588867 L 18.42112350463867 0 Z" stroke="none" fill="#20dfa5"/>
          </g>
          <path id="Path_46" data-name="Path 46" d="M-6825.074-4945.209l25.765,14.417,26.79-14.93" transform="translate(6847.021 4976.306)" fill="none" stroke="#20dfa5" stroke-width="9"/>
          <path id="Path_47" data-name="Path 47" d="M-6807.925-4905.424V-4936.8" transform="translate(6855.624 4980.779)" fill="none" stroke="#20dfa5" stroke-width="9"/>
        </g>
        <path id="Path_48" data-name="Path 48" d="M-6816.908-5066.34h0l60.9-33.814" transform="translate(7012.164 5155.85)" fill="none" stroke="#20dfa5" stroke-width="18"/>
      </g>
    </g>
  </g>
</svg>
